<svg width="54" height="35" viewBox="0 0 54 35" fill="none" xmlns="http://www.w3.org/2000/svg">
<g filter="url(#filter0_d_229_133)">
<mask id="path-1-inside-1_229_133" fill="white">
<path d="M6 17.5L17.5 6L29 17.5L17.5 29L6 17.5Z"/>
</mask>
<path d="M29 17.5L30.4142 18.9142C31.1953 18.1332 31.1953 16.8668 30.4142 16.0858L29 17.5ZM16.0858 7.41421L27.5858 18.9142L30.4142 16.0858L18.9142 4.58579L16.0858 7.41421ZM27.5858 16.0858L16.0858 27.5858L18.9142 30.4142L30.4142 18.9142L27.5858 16.0858Z" fill="#65C95B" mask="url(#path-1-inside-1_229_133)"/>
</g>
<g filter="url(#filter1_d_229_133)">
<mask id="path-3-inside-2_229_133" fill="white">
<path d="M15.752 17.5L27.252 6L38.752 17.5L27.252 29L15.752 17.5Z"/>
</mask>
<path d="M38.752 17.5L40.1662 18.9142C40.9472 18.1332 40.9472 16.8668 40.1662 16.0858L38.752 17.5ZM25.8377 7.41421L37.3377 18.9142L40.1662 16.0858L28.6662 4.58579L25.8377 7.41421ZM37.3377 16.0858L25.8377 27.5858L28.6662 30.4142L40.1662 18.9142L37.3377 16.0858Z" fill="#65C95B" mask="url(#path-3-inside-2_229_133)"/>
</g>
<g filter="url(#filter2_d_229_133)">
<mask id="path-5-inside-3_229_133" fill="white">
<path d="M25.5039 17.5L37.0039 6L48.5039 17.5L37.0039 29L25.5039 17.5Z"/>
</mask>
<path d="M48.5039 17.5L49.9181 18.9142C50.6992 18.1332 50.6992 16.8668 49.9181 16.0858L48.5039 17.5ZM35.5897 7.41421L47.0897 18.9142L49.9181 16.0858L38.4181 4.58579L35.5897 7.41421ZM47.0897 16.0858L35.5897 27.5858L38.4181 30.4142L49.9181 18.9142L47.0897 16.0858Z" fill="#65C95B" mask="url(#path-5-inside-3_229_133)"/>
</g>
<defs>
<filter id="filter0_d_229_133" x="0.7" y="0.7" width="33.6" height="33.6" filterUnits="userSpaceOnUse" color-interpolation-filters="sRGB">
<feFlood flood-opacity="0" result="BackgroundImageFix"/>
<feColorMatrix in="SourceAlpha" type="matrix" values="0 0 0 0 0 0 0 0 0 0 0 0 0 0 0 0 0 0 127 0" result="hardAlpha"/>
<feOffset/>
<feGaussianBlur stdDeviation="2.65"/>
<feComposite in2="hardAlpha" operator="out"/>
<feColorMatrix type="matrix" values="0 0 0 0 0.395215 0 0 0 0 0.7875 0 0 0 0 0.357656 0 0 0 1 0"/>
<feBlend mode="normal" in2="BackgroundImageFix" result="effect1_dropShadow_229_133"/>
<feBlend mode="normal" in="SourceGraphic" in2="effect1_dropShadow_229_133" result="shape"/>
</filter>
<filter id="filter1_d_229_133" x="10.452" y="0.7" width="33.6" height="33.6" filterUnits="userSpaceOnUse" color-interpolation-filters="sRGB">
<feFlood flood-opacity="0" result="BackgroundImageFix"/>
<feColorMatrix in="SourceAlpha" type="matrix" values="0 0 0 0 0 0 0 0 0 0 0 0 0 0 0 0 0 0 127 0" result="hardAlpha"/>
<feOffset/>
<feGaussianBlur stdDeviation="2.65"/>
<feComposite in2="hardAlpha" operator="out"/>
<feColorMatrix type="matrix" values="0 0 0 0 0.395215 0 0 0 0 0.7875 0 0 0 0 0.357656 0 0 0 1 0"/>
<feBlend mode="normal" in2="BackgroundImageFix" result="effect1_dropShadow_229_133"/>
<feBlend mode="normal" in="SourceGraphic" in2="effect1_dropShadow_229_133" result="shape"/>
</filter>
<filter id="filter2_d_229_133" x="20.2039" y="0.7" width="33.6" height="33.6" filterUnits="userSpaceOnUse" color-interpolation-filters="sRGB">
<feFlood flood-opacity="0" result="BackgroundImageFix"/>
<feColorMatrix in="SourceAlpha" type="matrix" values="0 0 0 0 0 0 0 0 0 0 0 0 0 0 0 0 0 0 127 0" result="hardAlpha"/>
<feOffset/>
<feGaussianBlur stdDeviation="2.65"/>
<feComposite in2="hardAlpha" operator="out"/>
<feColorMatrix type="matrix" values="0 0 0 0 0.395215 0 0 0 0 0.7875 0 0 0 0 0.357656 0 0 0 1 0"/>
<feBlend mode="normal" in2="BackgroundImageFix" result="effect1_dropShadow_229_133"/>
<feBlend mode="normal" in="SourceGraphic" in2="effect1_dropShadow_229_133" result="shape"/>
</filter>
</defs>
</svg>
